HIERARCHY
ROOT Hips
{
	OFFSET 0.000000 0.000000 0.000000
	CHANNELS 6 Xposition Yposition Zposition Xrotation Yrotation Zrotation
	JOINT LeftUpLeg_virtual
	{
		OFFSET 0.000000 0.000000 0.000000
		CHANNELS 3 Xrotation Yrotation Zrotation
		JOINT LeftUpLeg
		{
			OFFSET 11.394100 -6.187798 -0.413800
			CHANNELS 3 Xrotation Yrotation Zrotation
			JOINT LeftLeg
			{
				OFFSET 0.430247 -32.302673 3.732800
				CHANNELS 3 Xrotation Yrotation Zrotation
				JOINT LeftFoot
				{
					OFFSET -0.430247 -48.264931 -6.423300
					CHANNELS 3 Xrotation Yrotation Zrotation
					JOINT LeftToeBase
					{
						OFFSET 4.230900 -16.068199 23.438400
						CHANNELS 3 Xrotation Yrotation Zrotation
						JOINT LeftToe_End
						{
							OFFSET 4.510700 0.695400 19.974600
							CHANNELS 3 Xrotation Yrotation Zrotation
							End Site
							{
								OFFSET 0 0 0
							}
						}
					}
				}
			}
		}
	}
	JOINT RightUpLeg_virtual
	{
		OFFSET 0.000000 0.000000 0.000000
		CHANNELS 3 Xrotation Yrotation Zrotation
		JOINT RightUpLeg
		{
			OFFSET -11.333700 -6.187798 -0.413800
			CHANNELS 3 Xrotation Yrotation Zrotation
			JOINT RightLeg
			{
				OFFSET -0.430392 -32.302628 3.733000
				CHANNELS 3 Xrotation Yrotation Zrotation
				JOINT RightFoot
				{
					OFFSET 0.430392 -48.264973 -6.423500
					CHANNELS 3 Xrotation Yrotation Zrotation
					JOINT RightToeBase
					{
						OFFSET -4.230900 -16.068199 23.438400
						CHANNELS 3 Xrotation Yrotation Zrotation
						JOINT RightToe_End
						{
							OFFSET -4.510700 0.695400 19.974600
							CHANNELS 3 Xrotation Yrotation Zrotation
							End Site
							{
								OFFSET 0 0 0
							}
						}
					}
				}
			}
		}
	}
	JOINT Spine_virtual
	{
		OFFSET 0.000000 0.000000 0.000000
		CHANNELS 3 Xrotation Yrotation Zrotation
		JOINT Spine
		{
			OFFSET -0.002400 12.777504 0.315300
			CHANNELS 3 Xrotation Yrotation Zrotation
			JOINT Spine1
			{
				OFFSET -0.002067 5.816869 0.032633
				CHANNELS 3 Xrotation Yrotation Zrotation
				JOINT Spine1_split
				{
					OFFSET -0.002067 5.816869 0.032633
					CHANNELS 3 Xrotation Yrotation Zrotation
					JOINT Spine2
					{
						OFFSET -0.002067 5.816869 0.032633
						CHANNELS 3 Xrotation Yrotation Zrotation
						JOINT Neck_virtual
						{
							OFFSET 0.000000 0.000000 0.000000
							CHANNELS 3 Xrotation Yrotation Zrotation
							JOINT Neck
							{
								OFFSET -0.003700 21.199493 -0.826900
								CHANNELS 3 Xrotation Yrotation Zrotation
								JOINT Head
								{
									OFFSET 0.000000 20.442200 4.834800
									CHANNELS 3 Xrotation Yrotation Zrotation
									JOINT HeadTop_End
									{
										OFFSET 0.000000 34.668396 4.968400
										CHANNELS 3 Xrotation Yrotation Zrotation
										End Site
										{
											OFFSET 0 0 0
										}
									}
								}
							}
						}
						JOINT LeftShoulder_virtual
						{
							OFFSET 0.000000 0.000000 0.000000
							CHANNELS 3 Xrotation Yrotation Zrotation
							JOINT LeftShoulder
							{
								OFFSET 3.288150 8.794197 -1.372250
								CHANNELS 3 Xrotation Yrotation Zrotation
								JOINT LeftShoulder_split
								{
									OFFSET 3.288150 8.794197 -1.372250
									CHANNELS 3 Xrotation Yrotation Zrotation
									JOINT LeftArm
									{
										OFFSET 11.953299 -2.279007 -0.146200
										CHANNELS 3 Xrotation Yrotation Zrotation
										JOINT LeftForeArm
										{
											OFFSET 18.448900 0.000000 0.000000
											CHANNELS 3 Xrotation Yrotation Zrotation
											JOINT LeftHand
											{
												OFFSET 29.527798 0.000000 0.000000
												CHANNELS 3 Xrotation Yrotation Zrotation
												End Site
												{
													OFFSET 0 0 0
												}
											}
										}
									}
								}
							}
						}
						JOINT RightShoulder_virtual
						{
							OFFSET 0.000000 0.000000 0.000000
							CHANNELS 3 Xrotation Yrotation Zrotation
							JOINT RightShoulder
							{
								OFFSET -3.249400 8.794197 -1.372250
								CHANNELS 3 Xrotation Yrotation Zrotation
								JOINT RightShoulder_split
								{
									OFFSET -3.249400 8.794197 -1.372250
									CHANNELS 3 Xrotation Yrotation Zrotation
									JOINT RightArm
									{
										OFFSET -11.953299 -2.279007 -0.146200
										CHANNELS 3 Xrotation Yrotation Zrotation
										JOINT RightForeArm
										{
											OFFSET -18.448900 0.000000 0.000000
											CHANNELS 3 Xrotation Yrotation Zrotation
											JOINT RightHand
											{
												OFFSET -29.527802 0.000000 0.000000
												CHANNELS 3 Xrotation Yrotation Zrotation
												End Site
												{
													OFFSET 0 0 0
												}
											}
										}
									}
								}
							}
						}
					}
				}
			}
		}
	}
}
MOTION
Frames: 7
Frame Time: 0.03333333
5.041781 98.043617 -6.552856 0.000000 0.000000 0.000000 2.690828 2.234318 1.646232 -18.640667 6.530763 8.897995 25.690915 1.083859 2.436180 -7.409895 4.418366 -14.474504 -0.235506 -4.985458 0.407478 0.000000 0.000000 0.000000 2.844248 2.383388 1.688492 -19.257875 1.132539 -3.280242 27.881595 3.542224 -3.136245 -12.664458 -5.329407 9.655163 1.791625 3.990865 -7.382734 0.000000 0.000000 0.000000 2.579010 4.643460 1.151749 -0.930619 -3.637574 0.165776 -0.741894 -0.315197 0.640563 0.145210 -0.195493 0.010059 0.000000 0.000000 0.000000 -0.039661 1.765672 0.732902 1.981511 4.188229 1.102599 -9.246200 -21.771211 -5.026228 0.000000 0.000000 0.000000 -1.123068 0.344450 0.331646 -0.896619 -11.123340 -9.405484 -2.201115 1.177894 -2.468195 22.534123 -21.312892 -67.965805 -0.881655 -21.690842 -0.494985 0.000000 0.000000 0.000000 -0.395569 0.619229 0.933185 -2.244177 0.677792 11.785356 -6.976154 -0.747489 0.106531 10.250515 28.951434 66.167758 -6.710773 11.947377 3.234574 0.000000 0.000000 0.000000 
5.123564 98.141151 -6.554274 0.000000 0.000000 0.000000 2.631907 2.260931 1.632406 -18.551953 6.071089 8.780516 25.340533 1.140662 2.435294 -7.692344 4.541444 -14.033570 0.100683 -4.975978 0.365348 0.000000 0.000000 0.000000 2.767428 2.133054 1.655871 -18.916069 1.134489 -3.230882 27.649535 3.466065 -3.195716 -12.340694 -5.315992 9.580350 0.783980 4.104754 -7.256290 0.000000 0.000000 0.000000 2.608211 4.510693 1.085669 -1.041612 -3.579568 0.182906 -0.763358 -0.265627 0.638937 0.135847 -0.131942 0.020445 0.000000 0.000000 0.000000 -0.022410 1.806713 0.732148 1.946698 4.183931 1.243143 -9.650392 -21.485408 -5.283264 0.000000 0.000000 0.000000 -1.070966 0.393279 0.362833 -0.885580 -11.128245 -9.500233 -2.268814 1.059815 -2.541460 22.424170 -21.367217 -67.952965 -0.951214 -21.578555 -0.581264 0.000000 0.000000 0.000000 -0.391559 0.662014 0.919091 -2.288256 0.861973 11.794699 -6.500719 -0.639334 0.065058 10.169019 28.992193 66.059199 -6.682938 11.895224 3.267554 0.000000 0.000000 0.000000 
5.212535 98.232224 -6.536449 0.000000 0.000000 0.000000 2.478329 2.079812 1.551487 -18.518542 5.769488 8.688785 25.100877 1.211547 2.479280 -7.948690 4.693423 -13.847198 0.791001 -4.968539 0.343656 0.000000 0.000000 0.000000 2.704983 1.731781 1.548455 -18.533112 1.001976 -3.154581 27.485212 3.327841 -3.267337 -12.363039 -4.961268 9.624698 0.325101 4.278958 -7.621245 0.000000 0.000000 0.000000 2.550834 4.280123 0.908385 -1.047052 -3.392983 0.207435 -0.743945 -0.181030 0.643611 0.134818 -0.121888 0.004874 0.000000 0.000000 0.000000 0.065282 1.885644 0.731557 1.972243 4.152119 1.474378 -9.955395 -20.996833 -5.594764 0.000000 0.000000 0.000000 -1.014098 0.474939 0.388751 -0.914255 -11.147121 -9.581779 -2.232211 1.054682 -2.536683 21.942379 -21.334285 -68.106371 -0.986138 -21.471815 -0.579345 0.000000 0.000000 0.000000 -0.355655 0.734950 0.910254 -2.317388 0.984519 11.814976 -6.061472 -0.608205 0.058531 10.275577 29.035988 65.766942 -6.577290 11.864467 3.156215 0.000000 0.000000 0.000000 
5.302361 98.214546 -6.569706 0.000000 0.000000 0.000000 2.298559 1.687114 1.446642 -18.498176 5.678971 8.561144 25.217700 1.258123 2.593589 -8.064776 4.843186 -13.935831 1.038002 -4.994525 0.510728 0.000000 0.000000 0.000000 2.698122 1.267522 1.427148 -18.372907 0.732768 -3.120606 27.436325 3.109941 -3.312405 -12.710626 -4.452840 9.699565 0.807147 4.461366 -8.459770 0.000000 0.000000 0.000000 2.443008 4.004336 0.751227 -0.917966 -3.112175 0.204458 -0.656678 -0.069267 0.648963 0.142702 -0.170142 -0.013603 0.000000 0.000000 0.000000 0.223941 1.989916 0.726438 2.040321 4.096889 1.776828 -10.114679 -20.294133 -5.882765 0.000000 0.000000 0.000000 -0.958131 0.584591 0.400790 -0.985529 -11.188795 -9.648022 -2.141801 1.068098 -2.499675 21.186777 -21.270601 -68.290198 -1.017312 -21.421068 -0.528485 0.000000 0.000000 0.000000 -0.282222 0.826070 0.901034 -2.313772 1.071367 11.822298 -5.695708 -0.604880 0.076764 10.492502 29.131218 65.400134 -6.427377 11.886279 2.935612 0.000000 0.000000 0.000000 
5.436493 98.131332 -6.645977 0.000000 0.000000 0.000000 2.183832 1.152564 1.341218 -18.525485 5.764022 8.364677 25.765661 1.359867 2.774625 -8.173243 5.072215 -14.084724 0.598948 -5.058935 0.834422 0.000000 0.000000 0.000000 2.783575 0.764670 1.316599 -18.583736 0.369554 -3.147488 27.397591 2.881608 -3.293050 -12.989656 -4.026031 9.946851 1.651586 4.608560 -9.639965 0.000000 0.000000 0.000000 2.365837 3.744180 0.665620 -0.657727 -2.794078 0.154625 -0.505899 0.050148 0.648941 0.125239 -0.251580 -0.012078 0.000000 0.000000 0.000000 0.448671 2.104034 0.708060 2.075608 4.019742 2.119169 -10.087348 -19.378357 -6.062336 0.000000 0.000000 0.000000 -0.887115 0.707590 0.400250 -1.090010 -11.255899 -9.713904 -1.987486 1.043521 -2.574655 20.272223 -21.251565 -68.376607 -1.050192 -21.456631 -0.439068 0.000000 0.000000 0.000000 -0.178155 0.923128 0.891702 -2.288574 1.198881 11.788694 -5.416938 -0.614790 0.065180 10.696138 29.325526 65.063310 -6.284530 11.975810 2.653314 0.000000 0.000000 0.000000 
5.558168 98.045044 -6.759823 0.000000 0.000000 0.000000 2.216028 0.564783 1.230032 -18.672380 5.952470 8.113834 26.581624 1.664212 2.991857 -8.432394 5.480376 -14.030735 0.011198 -5.149794 1.047574 0.000000 0.000000 0.000000 3.023410 0.355218 1.190479 -19.222825 0.029041 -3.158532 27.236600 2.640069 -3.214227 -12.818918 -3.879991 10.453142 2.436913 4.684030 -10.938370 0.000000 0.000000 0.000000 2.426283 3.494174 0.581873 -0.288435 -2.495588 0.091480 -0.302400 0.166104 0.632553 0.099534 -0.334944 -0.001943 0.000000 0.000000 0.000000 0.723278 2.213179 0.668356 2.034566 3.940934 2.467557 -9.842971 -18.270136 -6.090853 0.000000 0.000000 0.000000 -0.795580 0.824128 0.381570 -1.218406 -11.353202 -9.798779 -1.781581 0.973670 -2.693340 19.309799 -21.284990 -68.283921 -1.119522 -21.522737 -0.334976 0.000000 0.000000 0.000000 -0.043720 1.011791 0.870917 -2.266459 1.438615 11.712256 -5.172081 -0.526547 0.008155 10.801960 29.663652 64.812532 -6.182956 12.150755 2.373663 0.000000 0.000000 0.000000 
5.638624 98.037148 -7.011442 0.000000 0.000000 0.000000 2.450257 -0.027435 0.998491 -19.066033 5.977607 7.940069 27.465463 2.111251 3.228853 -8.699982 6.079907 -13.993209 -0.147828 -5.232425 0.950180 0.000000 0.000000 0.000000 3.412924 0.031668 0.918569 -20.228372 -0.192957 -3.029195 26.890060 2.343339 -3.096068 -11.966649 -4.096016 11.072238 2.845141 4.687533 -12.017480 0.000000 0.000000 0.000000 2.744477 3.194566 0.382129 0.123925 -2.249449 0.068865 -0.079848 0.255970 0.598580 0.089373 -0.360829 0.011510 0.000000 0.000000 0.000000 1.020327 2.297505 0.595403 1.907952 3.870220 2.794633 -9.358037 -17.035219 -5.940058 0.000000 0.000000 0.000000 -0.663469 0.911550 0.335989 -1.349954 -11.469739 -9.936009 -1.577834 0.886517 -2.783226 18.280755 -21.360008 -67.993864 -1.234556 -21.517083 -0.225582 0.000000 0.000000 0.000000 0.123951 1.080013 0.828316 -2.261652 1.803753 11.621519 -5.006851 -0.438642 -0.103313 10.824958 30.132172 64.632318 -6.131459 12.371542 2.140408 0.000000 0.000000 0.000000 
